<?xml version="1.0" encoding="utf-8"?>
<!-- Generator: Adobe Illustrator 26.3.1, SVG Export Plug-In . SVG Version: 6.00 Build 0)  -->
<svg version="1.1" id="圖層_1" xmlns="http://www.w3.org/2000/svg" xmlns:xlink="http://www.w3.org/1999/xlink" x="0px" y="0px"
	 viewBox="0 0 40.5 32.9" style="enable-background:new 0 0 40.5 32.9;" xml:space="preserve">
<style type="text/css">
	.st0{fill:#FFB211;}
</style>
<g id="圖層_2_00000014622135869253605450000008275670555173907647_">
	<g id="text">
		<path class="st0" d="M40.5,3.9C39,4.6,37.4,5,35.8,5.2c1.7-1,3-2.7,3.7-4.6c-1.6,1-3.4,1.6-5.3,2C31-0.7,25.7-0.9,22.4,2.2
			c-1.7,1.6-2.6,3.8-2.6,6.1c0,0.6,0.1,1.3,0.2,1.9C13.3,9.9,7.1,6.7,2.8,1.5c-2.2,3.8-1.1,8.7,2.6,11.1c-1.3,0-2.6-0.4-3.8-1v0.1
			c0,3.9,2.8,7.3,6.7,8.1c-0.7,0.2-1.5,0.3-2.2,0.3c-0.5,0-1.1,0-1.6-0.1c1.1,3.4,4.2,5.7,7.8,5.8C9.4,28.1,5.7,29.3,2,29.3
			c-0.7,0-1.3,0-2-0.1c3.8,2.4,8.2,3.7,12.8,3.7c15.2,0,23.7-12.7,23.7-23.7c0-0.4,0-0.7,0-1.1C38,7,39.4,5.6,40.5,3.9"/>
	</g>
</g>
</svg>
