<?xml version="1.0" encoding="utf-8"?>
<!-- Generator: Adobe Illustrator 26.3.1, SVG Export Plug-In . SVG Version: 6.00 Build 0)  -->
<svg version="1.1" id="圖層_1" xmlns="http://www.w3.org/2000/svg" xmlns:xlink="http://www.w3.org/1999/xlink" x="0px" y="0px"
	 viewBox="0 0 40.5 40.5" style="enable-background:new 0 0 40.5 40.5;" xml:space="preserve">
<style type="text/css">
	.st0{fill:#FFB211;}
</style>
<g id="圖層_2_00000047056005187081563490000007260175133484434332_">
	<g id="text">
		<path class="st0" d="M40.5,20.4C40.4,9.2,31.3,0.2,20.1,0.2S-0.1,9.4,0,20.6c0,9.9,7.3,18.3,17.1,19.9V26.3H12v-5.9h5.1v-4.5
			c0-5.1,3-7.9,7.6-7.9c1.5,0,3,0.2,4.5,0.4v5h-2.6c-1.6-0.2-3.1,0.9-3.3,2.5c0,0.2,0,0.4,0,0.6v3.8H29l-0.9,5.9h-4.7v14.2
			C33.3,38.9,40.5,30.4,40.5,20.4z"/>
	</g>
</g>
</svg>
