<?xml version="1.0" encoding="utf-8"?>
<!-- Generator: Adobe Illustrator 26.3.1, SVG Export Plug-In . SVG Version: 6.00 Build 0)  -->
<svg version="1.1" id="圖層_1" xmlns="http://www.w3.org/2000/svg" xmlns:xlink="http://www.w3.org/1999/xlink" x="0px" y="0px"
	 viewBox="0 0 40.5 40.5" style="enable-background:new 0 0 40.5 40.5;" xml:space="preserve">
<style type="text/css">
	.st0{fill:#FFB211;}
</style>
<g id="圖層_2_00000119091523233303865030000004940386434903322803_">
	<g id="text">
		<path class="st0" d="M40,20.9L21.8,0.6c-0.8-0.8-2.1-0.8-3,0l0,0L0.5,20.9c-0.3,0.3-0.4,0.6-0.5,1c0,0.4,0,0.8,0.2,1.1
			c0.3,0.7,1,1.2,1.8,1.2h4.1v14.2c0,0.5,0.2,1.1,0.6,1.4c0.4,0.4,0.9,0.6,1.4,0.6h6.1c1.1,0,2-0.9,2-2v-8.1h8.1v8.1
			c0,1.1,0.9,2,2,2h6.1c1.1,0,2-0.9,2-2V24.3h4c0.4,0,0.8-0.1,1.1-0.3c0.3-0.2,0.6-0.5,0.8-0.9s0.2-0.8,0.2-1.1
			c-0.1-0.4-0.2-0.7-0.5-1L40,20.9z"/>
	</g>
</g>
</svg>
